<svg fill="none" height="117" viewBox="0 0 124 117" width="124" xmlns="http://www.w3.org/2000/svg"><path d="m58.5 83.9v-7.8h20.2c2.7333 0 5.2-.4667 7.4-1.4 2.2667-.9333 4.0667-2.3 5.4-4.1s2-3.9333 2-6.4c0-2.4-.6333-4.4333-1.9-6.1-1.2667-1.7333-3.0333-3.0667-5.3-4-2.2-.9333-4.7333-1.4-7.6-1.4h-40.1v-8.3h39.8c5.2 0 9.7.8333 13.5 2.5 3.8 1.6 6.7333 3.9 8.8 6.9 2.067 2.9333 3.1 6.4 3.1 10.4 0 3.8-1.033 7.2-3.1 10.2-2 3-4.9 5.3333-8.7 7-3.7333 1.6667-8.2 2.5-13.4 2.5zm-19.9 29.1v-8.3h35.9v8.3zm12.9-4.7v-59.1h10.4v59.1zm51.2 6.1c-3.0667-.067-5.9-.667-8.5-1.8-2.6-1.2-5-3.2-7.2-6-2.1333-2.867-4.1-6.8333-5.9-11.9l-4.3-12.2 8.5-1.1 4.4 10.9c1.4667 3.5333 2.9667 6.2333 4.5 8.1 1.5333 1.8 3.1 3.033 4.7 3.7 1.667.667 3.267 1 4.8 1 1.4 0 2.533-.133 3.4-.4.933-.267 1.8-.533 2.6-.8l2.2 8.4c-1.133.6-2.5 1.1-4.1 1.5-1.533.4-3.233.6-5.1.6z" fill="#2af4ff"/><g stroke="#2af4ff"><path d="m40 26v70" stroke-width="10"/><path d="m120 61c0 9.2301-5.804 18.1334-16.328 24.9231-10.4827 6.7631-25.2049 11.0769-41.672 11.0769s-31.1893-4.3138-41.6721-11.0769c-10.52396-6.7897-16.3279-15.693-16.3279-24.9231s5.80394-18.1334 16.3279-24.9231c10.4828-6.7631 25.205-11.0769 41.6721-11.0769s31.1893 4.3138 41.672 11.0769c10.524 6.7897 16.328 15.693 16.328 24.9231z" stroke-width="8"/></g></svg>