<svg width="277" height="328" viewBox="0 0 277 328" fill="none" xmlns="http://www.w3.org/2000/svg">
<path d="M128.82 177.308V160.772H171.644C177.439 160.772 182.668 159.783 187.332 157.804C192.137 155.825 195.953 152.928 198.78 149.112C201.607 145.296 203.02 140.773 203.02 135.544C203.02 130.456 201.677 126.145 198.992 122.612C196.307 118.937 192.561 116.111 187.756 114.132C183.092 112.153 177.721 111.164 171.644 111.164H86.632V93.568H171.008C182.032 93.568 191.572 95.3347 199.628 98.868C207.684 102.26 213.903 107.136 218.284 113.496C222.665 119.715 224.856 127.064 224.856 135.544C224.856 143.6 222.665 150.808 218.284 157.168C214.044 163.528 207.896 168.475 199.84 172.008C191.925 175.541 182.456 177.308 171.432 177.308H128.82ZM86.632 239V221.404H162.74V239H86.632ZM113.98 229.036V103.744H136.028V229.036H113.98ZM222.524 241.968C216.023 241.827 210.016 240.555 204.504 238.152C198.992 235.608 193.904 231.368 189.24 225.432C184.717 219.355 180.548 210.945 176.732 200.204L167.616 174.34L185.636 172.008L194.964 195.116C198.073 202.607 201.253 208.331 204.504 212.288C207.755 216.104 211.076 218.719 214.468 220.132C218.001 221.545 221.393 222.252 224.644 222.252C227.612 222.252 230.015 221.969 231.852 221.404C233.831 220.839 235.668 220.273 237.364 219.708L242.028 237.516C239.625 238.788 236.728 239.848 233.336 240.696C230.085 241.544 226.481 241.968 222.524 241.968Z" fill="#2AF4FF"/>
<line x1="86.5" y1="52" x2="86.5" y2="206" stroke="#2AF4FF" stroke-width="15"/>
<path d="M269.5 128.5C269.5 149.5 256.167 169.57 232.396 184.759C208.711 199.894 175.534 209.5 138.5 209.5C101.466 209.5 68.2894 199.894 44.6041 184.759C20.8334 169.57 7.5 149.5 7.5 128.5C7.5 107.5 20.8334 87.4302 44.6041 72.241C68.2894 57.1063 101.466 47.5 138.5 47.5C175.534 47.5 208.711 57.1063 232.396 72.241C256.167 87.4302 269.5 107.5 269.5 128.5Z" stroke="#2AF4FF" stroke-width="15"/>
</svg>
